HIERARCHY
ROOT Hips
{
	OFFSET -0.001795 -0.223333 0.028219
	CHANNELS 6 Xposition Yposition Zposition Zrotation Yrotation Xrotation 
	JOINT LeftUpLeg
	{
		OFFSET 0.069520 -0.091406 -0.006815
		CHANNELS 3 Zrotation Yrotation Xrotation
		JOINT LeftLeg
		{
			OFFSET 0.034277 -0.375199 -0.004496
			CHANNELS 3 Zrotation Yrotation Xrotation
			JOINT LeftFoot
			{
				OFFSET -0.013596 -0.397961 -0.043693
				CHANNELS 3 Zrotation Yrotation Xrotation
				JOINT LeftToe
				{
					OFFSET 0.026358 -0.055791 0.119288
					CHANNELS 3 Zrotation Yrotation Xrotation
					End Site
					{
						OFFSET 0.000000 0.000000 0.000000
					}
				}
			}
		}
	}
	JOINT RightUpLeg
	{
		OFFSET -0.067670 -0.090522 -0.004320
		CHANNELS 3 Zrotation Yrotation Xrotation
		JOINT RightLeg
		{
			OFFSET -0.038290 -0.382569 -0.008850
			CHANNELS 3 Zrotation Yrotation Xrotation
			JOINT RightFoot
			{
				OFFSET 0.015774 -0.398415 -0.042312
				CHANNELS 3 Zrotation Yrotation Xrotation
				JOINT RightToe
				{
					OFFSET -0.025372 -0.048144 0.123348
					CHANNELS 3 Zrotation Yrotation Xrotation
					End Site
					{
						OFFSET 0.000000 0.000000 0.000000
					}
				}
			}
		}
	}
	JOINT Spine
	{
		OFFSET -0.002533 0.108963 -0.026696
		CHANNELS 3 Zrotation Yrotation Xrotation
		JOINT Spine1
		{
			OFFSET 0.005487 0.135180 0.001092
			CHANNELS 3 Zrotation Yrotation Xrotation
			JOINT Spine2
			{
				OFFSET 0.001457 0.052922 0.025425
				CHANNELS 3 Zrotation Yrotation Xrotation
				JOINT Neck
				{
					OFFSET -0.002778 0.213870 -0.042857
					CHANNELS 3 Zrotation Yrotation Xrotation
					JOINT Head
					{
						OFFSET 0.005152 0.064970 0.051349
						CHANNELS 3 Zrotation Yrotation Xrotation
						End Site
						{
							OFFSET 0.000000 0.000000 0.000000
						}
					}
				}
				JOINT LeftShoulder
				{
					OFFSET 0.078845 0.121749 -0.034090
					CHANNELS 3 Zrotation Yrotation Xrotation
					JOINT LeftArm
					{
						OFFSET 0.090977 0.030469 -0.008868
						CHANNELS 3 Zrotation Yrotation Xrotation
						JOINT LeftForeArm
						{
							OFFSET 0.259612 -0.012772 -0.027456
							CHANNELS 3 Zrotation Yrotation Xrotation
							JOINT LeftHand
							{
								OFFSET 0.249234 0.008986 -0.001171
								CHANNELS 3 Zrotation Yrotation Xrotation
								End Site
								{
									OFFSET 0.000000 0.000000 0.000000
								}
							}
						}
					}
				}
				JOINT RightShoulder
				{
					OFFSET -0.081759 0.118833 -0.038615
					CHANNELS 3 Zrotation Yrotation Xrotation
					JOINT RightArm
					{
						OFFSET -0.096012 0.032551 -0.009143
						CHANNELS 3 Zrotation Yrotation Xrotation
						JOINT RightForeArm
						{
							OFFSET -0.253742 -0.013329 -0.021401
							CHANNELS 3 Zrotation Yrotation Xrotation
							JOINT RightHand
							{
								OFFSET -0.255298 0.007772 -0.005559
								CHANNELS 3 Zrotation Yrotation Xrotation
								End Site
								{
									OFFSET 0.000000 0.000000 0.000000
								}
							}
						}
					}
				}
			}
		}
	}
}
MOTION
Frames: 12
Frame Time: 0.050000
-0.194683 0.936867 1.636134 -0.002322 -12.960948 -2.566016 1.484132 -0.789900 -11.820502 -5.816683 3.546905 35.907779 11.795343 22.729772 10.312899 0.000000 0.000000 0.000000 4.557114 -0.395462 2.021887 -5.617441 0.999857 4.989910 -0.756769 -3.245670 2.207298 0.000000 0.000000 0.000000 1.376327 -0.254329 5.227402 0.489815 -0.177386 3.660144 2.450927 -1.932877 3.718440 -1.568782 1.320691 -21.083997 0.000000 0.000000 0.000000 -22.478040 -0.515206 0.649531 -47.250003 -19.257654 1.181082 -151.333055 -68.630535 150.608218 0.000000 0.000000 0.000000 15.562514 5.418790 -0.722474 49.168772 4.801864 -2.353063 130.467877 57.628405 96.844397 0.000000 0.000000 0.000000 
-0.202223 0.936198 1.650703 0.252656 -14.202885 -3.111785 0.409984 -1.118186 -15.695275 -4.475054 3.258331 37.256019 13.137226 24.024212 14.322295 0.000000 0.000000 0.000000 4.659367 -0.602813 3.775882 -6.135592 1.017181 4.522495 -0.435607 -2.119557 1.571261 0.000000 0.000000 0.000000 1.326954 -0.244629 5.142984 0.165246 0.009665 3.725027 2.282777 -0.626855 3.927683 -1.215073 1.183072 -20.379622 0.000000 0.000000 0.000000 -21.601238 -0.843722 0.633605 -48.341799 -20.776285 1.993179 -156.103742 -69.761791 157.536565 0.000000 0.000000 0.000000 15.733151 5.727148 -0.440848 49.795242 6.363301 -1.823105 132.037676 59.227608 101.460828 0.000000 0.000000 0.000000 
-0.209465 0.936201 1.666110 0.682867 -15.332568 -3.656174 -1.109613 -1.498646 -18.701438 -4.282395 2.499860 30.186495 15.886904 26.839527 18.461481 0.000000 0.000000 0.000000 4.597613 -0.805329 5.746435 -6.823944 1.005992 3.647002 -0.065439 -1.109042 1.330639 0.000000 0.000000 0.000000 1.221304 -0.242483 5.317825 -0.845862 0.531678 3.270467 2.915811 0.579534 4.508326 -1.733483 1.527425 -20.767066 0.000000 0.000000 0.000000 -21.117050 -1.040110 0.636245 -49.442814 -22.415127 2.831251 -161.770465 -69.613551 165.321316 0.000000 0.000000 0.000000 15.909997 6.230989 -0.118968 50.544309 7.950407 -1.271475 131.556709 59.756738 101.811443 0.000000 0.000000 0.000000 
-0.216748 0.935272 1.682943 0.757370 -16.377128 -3.618963 -2.349840 -1.829413 -21.302292 -4.082216 1.438172 18.871361 19.154221 28.112618 29.775090 0.000000 0.000000 0.000000 4.748194 -0.953800 7.142501 -7.282962 0.985774 3.012835 0.229338 -0.193526 1.000970 0.000000 0.000000 0.000000 0.864267 -0.224963 5.290965 -1.029115 0.627691 3.024312 3.084169 2.436354 4.840294 -1.845693 1.735318 -20.846545 0.000000 0.000000 0.000000 -20.680352 -1.858867 0.772204 -50.569443 -23.128442 3.355745 -166.869005 -68.618997 171.707984 0.000000 0.000000 0.000000 15.939910 6.454090 0.284102 51.746099 9.307101 -0.840224 133.378502 59.903777 105.451550 0.000000 0.000000 0.000000 
-0.224552 0.932927 1.701873 0.726322 -17.672415 -3.365684 -3.661251 -2.123915 -22.972267 -2.730831 0.639469 11.198922 14.302274 22.308816 30.534754 0.000000 0.000000 0.000000 5.209339 -1.119980 8.510348 -8.269683 1.013958 2.295371 0.484489 0.857245 0.403797 0.000000 0.000000 0.000000 0.516258 -0.218264 5.697108 -1.441109 0.833632 2.664720 3.410275 3.607540 5.133515 -2.081237 1.931099 -21.908051 0.000000 0.000000 0.000000 -19.416203 -0.782354 0.081536 -53.033594 -24.035117 4.189834 -169.228368 -66.736209 174.840006 0.000000 0.000000 0.000000 14.868809 7.040775 0.773007 52.981181 11.327883 -0.061420 135.688109 59.194486 108.045812 0.000000 0.000000 0.000000 
-0.233049 0.928008 1.724166 0.760672 -17.809862 -2.996857 -5.318240 -2.507498 -23.812113 -0.968634 0.139535 8.120875 4.583842 10.459679 20.570207 0.000000 0.000000 0.000000 5.507479 -1.283886 9.886174 -8.810751 1.037562 1.955023 0.049659 0.865610 -0.906365 0.000000 0.000000 0.000000 -0.134572 -0.190489 6.010611 -2.017106 1.055180 1.478687 4.451616 4.017017 6.158816 -2.497408 2.134761 -21.219694 0.000000 0.000000 0.000000 -20.127016 -2.031524 0.808278 -53.158711 -24.030347 4.102107 -173.118784 -64.809358 -179.197673 0.000000 0.000000 0.000000 14.309836 7.290059 0.970786 53.119772 11.787616 0.028860 139.440012 57.114845 111.136980 0.000000 0.000000 0.000000 
-0.242142 0.921348 1.750956 0.317667 -19.622366 -2.182149 -5.801111 -2.538685 -24.551078 0.524913 -0.143299 9.759103 1.253355 4.856705 15.531160 0.000000 0.000000 0.000000 5.775347 -1.380180 10.875051 -9.219690 1.083276 2.037528 0.056368 2.409860 -2.629570 0.000000 0.000000 0.000000 -0.010880 -0.182110 5.395106 -2.421866 1.280621 1.587512 3.967976 5.229803 5.969148 -1.683822 1.724751 -21.093530 0.000000 0.000000 0.000000 -19.893692 -1.846002 0.605073 -54.007571 -23.432494 3.981735 -173.561822 -63.382639 -178.714327 0.000000 0.000000 0.000000 15.203262 8.144889 1.368295 52.733870 12.349740 0.333261 142.873075 55.011573 114.232003 0.000000 0.000000 0.000000 
-0.252049 0.915094 1.782929 0.084265 -20.410913 -1.693750 -6.289441 -2.546366 -23.707652 1.659530 -0.373995 11.258847 -0.080928 2.649110 15.207306 0.000000 0.000000 0.000000 5.598205 -1.444403 12.094984 -9.047722 1.177287 2.965686 -0.138731 2.978591 -3.760629 0.000000 0.000000 0.000000 -0.758615 -0.128583 4.752632 -2.491284 1.371596 2.189436 4.328862 5.252594 5.138929 -1.618123 1.611353 -19.991386 0.000000 0.000000 0.000000 -20.446815 -2.530513 1.061587 -54.110185 -22.864922 3.779233 -174.732340 -62.801799 -176.701982 0.000000 0.000000 0.000000 15.689327 8.455885 1.362803 52.292622 11.807843 0.230442 143.839251 52.355936 112.080511 0.000000 0.000000 0.000000 
-0.262137 0.911075 1.819050 0.068615 -22.225891 -1.082481 -6.720420 -2.501392 -23.078272 2.501028 -0.504605 13.381465 0.243034 2.752299 14.198958 0.000000 0.000000 0.000000 4.897774 -1.333718 12.535102 -9.089184 1.459957 5.034570 0.405518 4.257870 -3.553467 0.000000 0.000000 0.000000 -1.225887 -0.065295 2.830622 -2.384671 1.369311 2.535191 4.134204 5.015133 5.504221 -1.568875 1.469475 -20.752551 0.000000 0.000000 0.000000 -21.684394 -0.998239 0.510349 -53.303999 -20.725482 2.518259 -170.222969 -61.762393 176.621444 0.000000 0.000000 0.000000 15.699409 8.893891 1.322020 51.456502 10.936320 -0.105683 145.971967 50.946090 112.936265 0.000000 0.000000 0.000000 
-0.272469 0.911770 1.856604 0.826121 -23.295939 -0.681652 -7.755313 -2.562819 -21.620090 2.616561 -0.480081 14.157751 1.257644 3.783234 10.595032 0.000000 0.000000 0.000000 3.050089 -1.013633 12.189138 -5.913654 1.508834 9.039930 -1.368779 -1.459369 -1.964868 0.000000 0.000000 0.000000 -2.165972 0.005162 1.484267 -2.441163 1.382629 2.255125 3.910155 3.871253 5.489953 -1.019198 0.962212 -20.773323 0.000000 0.000000 0.000000 -21.596211 -0.321409 0.596371 -53.723807 -19.746261 2.034137 -166.890032 -61.856956 172.416336 0.000000 0.000000 0.000000 14.305445 8.679246 1.005336 52.506432 10.486986 -0.341425 148.078562 49.796445 113.560306 0.000000 0.000000 0.000000 
-0.282848 0.916658 1.893505 1.595725 -25.175897 -0.104072 -8.481786 -2.498746 -19.963332 2.312000 -0.333814 14.058901 2.310261 5.270892 8.884566 0.000000 0.000000 0.000000 0.800896 -0.543405 9.540804 -2.283291 1.852949 16.250200 -2.635969 -6.696161 1.533137 0.000000 0.000000 0.000000 -2.751595 0.077771 -0.462430 -2.894316 1.641187 2.312575 3.691358 2.576068 4.900282 -1.302120 0.866711 -20.432809 0.000000 0.000000 0.000000 -22.078458 1.317639 0.212699 -53.743893 -19.310375 1.785447 -161.740746 -61.809856 165.422162 0.000000 0.000000 0.000000 13.317958 8.918586 0.800200 52.851887 10.291549 -0.404310 149.744992 49.960493 114.681688 0.000000 0.000000 0.000000 
-0.293647 0.922559 1.928736 2.079655 -26.228494 0.422133 -9.463308 -2.324377 -16.498571 2.617964 -0.466133 10.885789 2.876739 6.151181 7.840703 0.000000 0.000000 0.000000 -1.741249 -0.063968 5.139113 3.380812 2.002410 26.369113 -4.125730 -12.454640 7.025947 0.000000 0.000000 0.000000 -3.369182 0.140487 -1.853609 -2.934281 1.659455 2.191512 3.084646 1.804501 4.460021 -0.292379 0.132720 -18.351351 0.000000 0.000000 0.000000 -21.318608 1.087966 0.615230 -54.034901 -18.955572 1.724228 -157.737584 -62.050007 159.838261 0.000000 0.000000 0.000000 13.167911 8.757263 0.528314 53.252731 9.620961 -0.698076 151.895997 49.112260 116.633743 0.000000 0.000000 0.000000 
